<?xml version="1.0" encoding="UTF-8"?>
<!DOCTYPE svg PUBLIC "-//W3C//DTD SVG 1.1//EN" "http://www.w3.org/Graphics/SVG/1.1/DTD/svg11.dtd">
<svg xmlns="http://www.w3.org/2000/svg" version="1.1" width="192px" height="192px" style="shape-rendering:geometricPrecision; text-rendering:geometricPrecision; image-rendering:optimizeQuality; fill-rule:evenodd; clip-rule:evenodd" xmlns:xlink="http://www.w3.org/1999/xlink">
<g><path style="opacity:0.971" fill="#3d88c2" d="M 155.5,-0.5 C 159.167,-0.5 162.833,-0.5 166.5,-0.5C 173.615,4.07079 175.115,10.0708 171,17.5C 156.291,34.0385 141.791,50.7051 127.5,67.5C 124.236,69.0941 121.569,71.4275 119.5,74.5C 108.96,84.5263 96.2934,90.0263 81.5,91C 79.9336,91.6082 78.6002,92.4415 77.5,93.5C 75.9719,93.4827 75.4719,92.816 76,91.5C 79.7433,87.6558 83.2433,83.6558 86.5,79.5C 91.8008,74.029 96.9675,68.3623 102,62.5C 103.559,60.7834 104.392,58.7834 104.5,56.5C 121.82,37.8435 138.82,18.8435 155.5,-0.5 Z"/></g>
<g><path style="opacity:0.964" fill="#fedb5c" d="M 104.5,56.5 C 104.392,58.7834 103.559,60.7834 102,62.5C 96.9675,68.3623 91.8008,74.029 86.5,79.5C 67.8741,82.5633 52.3741,91.2299 40,105.5C 37.2279,109.388 34.7279,113.388 32.5,117.5C 31.8614,116.903 31.528,116.07 31.5,115C 34.5856,99.3998 40.5856,85.0665 49.5,72C 66.4085,61.865 84.7418,56.6983 104.5,56.5 Z"/></g>
<g><path style="opacity:0.995" fill="#fedb5c" d="M 127.5,67.5 C 146.808,76.748 163.975,89.0813 179,104.5C 185.219,111.384 187.719,119.384 186.5,128.5C 185.819,140.691 179.819,149.191 168.5,154C 153.134,158.548 137.801,158.548 122.5,154C 118.673,152.254 115.007,150.254 111.5,148C 102.174,137.339 90.8404,129.672 77.5,125C 66.0718,123.364 56.7385,127.031 49.5,136C 47.3496,137.411 45.0163,138.245 42.5,138.5C 37.6488,138.542 33.3155,137.209 29.5,134.5C 28.0819,128.923 29.0819,123.923 32.5,119.5C 44.3956,105.388 59.3956,96.7211 77.5,93.5C 92.9116,92.4166 107.578,88.5833 121.5,82C 125.843,78.1928 125.176,75.6928 119.5,74.5C 121.569,71.4275 124.236,69.0941 127.5,67.5 Z"/></g>
<g><path style="opacity:1" fill="#e8974b" d="M 119.5,74.5 C 125.176,75.6928 125.843,78.1928 121.5,82C 107.578,88.5833 92.9116,92.4166 77.5,93.5C 78.6002,92.4415 79.9336,91.6082 81.5,91C 96.2934,90.0263 108.96,84.5263 119.5,74.5 Z"/></g>
<g><path style="opacity:1" fill="#ef9946" d="M 86.5,79.5 C 83.2433,83.6558 79.7433,87.6558 76,91.5C 75.4719,92.816 75.9719,93.4827 77.5,93.5C 59.3956,96.7211 44.3956,105.388 32.5,119.5C 32.5,118.833 32.5,118.167 32.5,117.5C 34.7279,113.388 37.2279,109.388 40,105.5C 52.3741,91.2299 67.8741,82.5633 86.5,79.5 Z"/></g>
<g><path style="opacity:0.975" fill="#4088c0" d="M 62.5,140.5 C 59.4602,143.539 56.7935,146.873 54.5,150.5C 51.5,152.833 48.8333,155.5 46.5,158.5C 41.2056,162.127 36.539,166.46 32.5,171.5C 26.3346,177.934 19.3346,183.434 11.5,188C 9.5273,188.495 7.5273,188.662 5.5,188.5C 5.42074,185.729 5.92074,183.063 7,180.5C 10.9801,172.542 15.4801,164.875 20.5,157.5C 25.7492,151.399 30.9158,145.066 36,138.5C 38.0408,139.423 40.2075,139.756 42.5,139.5C 45.5184,139.665 48.5184,139.498 51.5,139C 56.0293,134.634 61.3626,131.8 67.5,130.5C 68.5,130.667 69.5,130.833 70.5,131C 67.7065,134.105 65.0398,137.272 62.5,140.5 Z"/></g>
<g><path style="opacity:0.981" fill="#ef9846" d="M 186.5,128.5 C 185.759,164.032 168.093,176.866 133.5,167C 126.833,164.333 120.167,161.667 113.5,159C 107.467,157.215 101.467,157.215 95.5,159C 92.6571,164.506 90.4905,170.339 89,176.5C 86.6872,179.072 83.8539,180.739 80.5,181.5C 81.412,179.405 82.5787,177.405 84,175.5C 82.6878,163.946 87.1878,155.779 97.5,151C 99.1341,150.506 100.801,150.34 102.5,150.5C 102.358,147.383 101.024,144.883 98.5,143C 88.5762,140.548 81.0762,143.715 76,152.5C 74.8884,161.367 71.3884,169.034 65.5,175.5C 63.283,176.369 60.9496,176.702 58.5,176.5C 62.5464,173.618 65.7131,169.952 68,165.5C 68.3241,151.157 75.4908,141.991 89.5,138C 80.1327,135.586 71.1327,136.419 62.5,140.5C 65.0398,137.272 67.7065,134.105 70.5,131C 69.5,130.833 68.5,130.667 67.5,130.5C 61.3626,131.8 56.0293,134.634 51.5,139C 48.5184,139.498 45.5184,139.665 42.5,139.5C 42.5,139.167 42.5,138.833 42.5,138.5C 45.0163,138.245 47.3496,137.411 49.5,136C 56.7385,127.031 66.0718,123.364 77.5,125C 90.8404,129.672 102.174,137.339 111.5,148C 115.007,150.254 118.673,152.254 122.5,154C 137.801,158.548 153.134,158.548 168.5,154C 179.819,149.191 185.819,140.691 186.5,128.5 Z"/></g>
<g><path style="opacity:0.914" fill="#f0c75c" d="M 29.5,134.5 C 33.3155,137.209 37.6488,138.542 42.5,138.5C 42.5,138.833 42.5,139.167 42.5,139.5C 40.2075,139.756 38.0408,139.423 36,138.5C 30.9158,145.066 25.7492,151.399 20.5,157.5C 21.5419,149.08 24.5419,141.414 29.5,134.5 Z"/></g>
<g><path style="opacity:0.991" fill="#f8c854" d="M 58.5,176.5 C 55.8127,176.664 53.146,176.497 50.5,176C 48.5906,173.7 47.2573,171.2 46.5,168.5C 50.1283,162.956 52.795,156.956 54.5,150.5C 56.7935,146.873 59.4602,143.539 62.5,140.5C 71.1327,136.419 80.1327,135.586 89.5,138C 75.4908,141.991 68.3241,151.157 68,165.5C 65.7131,169.952 62.5464,173.618 58.5,176.5 Z"/></g>
<g><path style="opacity:0.99" fill="#f8c854" d="M 80.5,181.5 C 74.9288,184.569 70.0954,183.569 66,178.5C 65.5172,177.552 65.3505,176.552 65.5,175.5C 71.3884,169.034 74.8884,161.367 76,152.5C 81.0762,143.715 88.5762,140.548 98.5,143C 101.024,144.883 102.358,147.383 102.5,150.5C 100.801,150.34 99.1341,150.506 97.5,151C 87.1878,155.779 82.6878,163.946 84,175.5C 82.5787,177.405 81.412,179.405 80.5,181.5 Z"/></g>
<g><path style="opacity:0.988" fill="#ee9846" d="M 54.5,150.5 C 52.795,156.956 50.1283,162.956 46.5,168.5C 43.7847,170.123 40.7847,170.79 37.5,170.5C 42.7893,168.211 45.7893,164.211 46.5,158.5C 48.8333,155.5 51.5,152.833 54.5,150.5 Z"/></g>
<g><path style="opacity:0.988" fill="#efc45a" d="M 46.5,158.5 C 45.7893,164.211 42.7893,168.211 37.5,170.5C 35.8828,171.038 34.2161,171.371 32.5,171.5C 36.539,166.46 41.2056,162.127 46.5,158.5 Z"/></g>
</svg>
